<svg xmlns="http://www.w3.org/2000/svg" viewBox="0 0 632 200" width="632" height="200" role="img" aria-label="vezir">
  <g transform="scale(0.78125)">
    <g fill="#111111">
      <path d="M 64 96 L 64 64 L 80 80 L 96 64 L 112 80 L 128 64 L 144 80 L 160 64 L 176 80 L 192 64 L 192 96 Z"/>
      <path d="M 92 96 L 164 96 L 176 196 L 80 196 Z"/>
      <rect x="48" y="196" width="160" height="28" rx="6" ry="6"/>
    </g>
    <circle cx="128" cy="36" r="12" fill="#FF6B35"/>
  </g>
  <g fill="#111111" transform="translate(232 134) scale(0.13013698630136986 -0.13013698630136986)">
    <path transform="translate(0 0)" d="M571 531H411L303 121L200 531H29L208 0H394Z"/>
    <path transform="translate(580 0)" d="M207 219H551C553 235 554 258 554 276C554 447 457 549 305 549C138 549 46 422 46 265C46 100 140 -17 322 -17C412 -17 484 13 534 56L471 142C429 115 383 98 335 98C267 98 218 132 207 219ZM305 443C372 443 399 392 400 315H205C212 403 249 443 305 443Z"/>
    <path transform="translate(1160 0)" d="M259 120 519 420V531H94V412H336L72 112V0H509L524 120Z"/>
    <path transform="translate(1740 0)" d="M299 809C244 809 205 770 205 720C205 669 244 631 299 631C354 631 392 669 392 720C392 770 354 809 299 809ZM394 531H91V423H236V108H86V0H530V108H394Z"/>
    <path transform="translate(2320 0)" d="M475 547C390 547 332 503 294 412L266 531H75V426H145V106H75V0H408V106H303V258C328 337 374 396 434 407V309H534L563 531C538 541 511 547 475 547Z"/>
  </g>
</svg>
